<svg baseProfile="basic" id="Í_xBC__xB2_ã_x5F_1" version="1.1" viewBox="0 0 592.2 583.9" x="0px" xml:space="preserve" xmlns="http://www.w3.org/2000/svg" xmlns:xlink="http://www.w3.org/1999/xlink" y="0px">
<g>
<g>
<path d="M71.5,573.4v-56.9L48,573.4h-3.5l-23.4-56.9v56.9h-8.6v-69.1h12.3l21.4,52l21.5-52h12.3v69.1H71.5z" fill="#393939"></path>
<path d="M122,574.7c-5.1,0-9.8-0.9-14-2.7c-4.2-1.8-7.8-4.3-10.8-7.5c-3-3.2-5.3-7-7-11.4
			c-1.7-4.3-2.5-9.1-2.5-14.2c0-5.1,0.8-9.8,2.5-14.2c1.7-4.4,4-8.1,7-11.4c3-3.2,6.6-5.7,10.8-7.5c4.2-1.8,8.9-2.7,14-2.7
			c5.1,0,9.8,0.9,14,2.7c4.2,1.8,7.8,4.3,10.8,7.5c3,3.2,5.3,7,7,11.4c1.7,4.3,2.5,9.1,2.5,14.2c0,5.1-0.8,9.8-2.5,14.2
			c-1.7,4.4-4,8.1-7,11.4c-3,3.2-6.6,5.7-10.8,7.5C131.7,573.8,127.1,574.7,122,574.7z M122,567c3.9,0,7.3-0.7,10.5-2.1
			c3.1-1.4,5.8-3.4,8-5.9c2.2-2.5,3.9-5.5,5.1-8.9c1.2-3.4,1.8-7.1,1.8-11.1c0-4-0.6-7.7-1.8-11.2c-1.2-3.4-2.9-6.4-5.1-8.9
			c-2.2-2.5-4.9-4.4-8-5.8c-3.1-1.4-6.6-2.1-10.5-2.1c-3.9,0-7.4,0.7-10.5,2.1c-3.1,1.4-5.8,3.4-8,5.8c-2.2,2.5-3.9,5.5-5.1,8.9
			c-1.2,3.5-1.8,7.2-1.8,11.2c0,4,0.6,7.7,1.8,11.1c1.2,3.4,2.9,6.4,5.1,8.9c2.2,2.5,4.9,4.5,8,5.9C114.6,566.3,118.1,567,122,567z" fill="#393939"></path>
<path d="M212.8,573.4l-40.3-55.1v55.1h-8.6v-69.1h8.8l39.8,54v-54h8.6v69.1H212.8z" fill="#393939"></path>
<path d="M263.3,574.7c-5.1,0-9.8-0.9-14-2.7c-4.2-1.8-7.8-4.3-10.8-7.5c-3-3.2-5.3-7-7-11.4
			c-1.7-4.3-2.5-9.1-2.5-14.2c0-5.1,0.8-9.8,2.5-14.2c1.7-4.4,4-8.1,7-11.4c3-3.2,6.6-5.7,10.8-7.5c4.2-1.8,8.9-2.7,14-2.7
			c5.1,0,9.8,0.9,14,2.7c4.2,1.8,7.8,4.3,10.8,7.5c3,3.2,5.3,7,7,11.4c1.7,4.3,2.5,9.1,2.5,14.2c0,5.1-0.8,9.8-2.5,14.2
			c-1.7,4.4-4,8.1-7,11.4c-3,3.2-6.6,5.7-10.8,7.5C273.1,573.8,268.4,574.7,263.3,574.7z M263.3,567c3.9,0,7.3-0.7,10.5-2.1
			c3.1-1.4,5.8-3.4,8-5.9c2.2-2.5,3.9-5.5,5.1-8.9c1.2-3.4,1.8-7.1,1.8-11.1c0-4-0.6-7.7-1.8-11.2c-1.2-3.4-2.9-6.4-5.1-8.9
			c-2.2-2.5-4.9-4.4-8-5.8c-3.1-1.4-6.6-2.1-10.5-2.1c-3.9,0-7.4,0.7-10.5,2.1c-3.1,1.4-5.8,3.4-8,5.8c-2.2,2.5-3.9,5.5-5.1,8.9
			c-1.2,3.5-1.8,7.2-1.8,11.2c0,4,0.6,7.7,1.8,11.1c1.2,3.4,2.9,6.4,5.1,8.9c2.2,2.5,4.9,4.5,8,5.9C255.9,566.3,259.4,567,263.3,567
			z" fill="#393939"></path>
<path d="M340.6,574.8c-5,0-9.8-0.8-14.2-2.5c-4.4-1.7-8.4-4.1-11.7-7.2c-3.3-3.1-6-6.9-7.9-11.3
			c-1.9-4.4-2.9-9.4-2.9-14.8c0-5.4,1-10.4,2.9-14.8c1.9-4.4,4.6-8.2,7.9-11.3c3.4-3.1,7.3-5.5,11.7-7.1c4.4-1.7,9.2-2.5,14.2-2.5
			c3.6,0,6.9,0.4,9.8,1.2c2.9,0.8,5.6,2,7.9,3.4c2.4,1.4,4.4,3.1,6.2,4.9c1.8,1.9,3.4,3.8,4.7,5.9l-12.2,6.6
			c-1.6-2.4-3.8-4.5-6.6-6.3c-2.8-1.8-6.1-2.7-9.8-2.7c-3.1,0-6,0.6-8.7,1.7c-2.7,1.1-4.9,2.7-6.9,4.8c-1.9,2-3.4,4.4-4.5,7.2
			c-1.1,2.8-1.6,5.8-1.6,9c0,3.3,0.5,6.3,1.6,9.1c1.1,2.8,2.6,5.2,4.5,7.2c1.9,2,4.2,3.6,6.9,4.7c2.7,1.1,5.6,1.7,8.7,1.7
			c3.1,0,6-0.6,8.7-1.7c2.6-1.1,4.7-2.3,6.1-3.7v-8.4h-18.2v-12.9h32.9v26.6c-3.5,4-7.7,7.1-12.6,9.5
			C352.5,573.6,346.9,574.8,340.6,574.8z" fill="#E73C00"></path>
<path d="M426.1,573.4l-4.2-11.7h-29.6l-4.3,11.7h-16.8l26.7-69.1h18.4l26.6,69.1H426.1z M407,519.1l-10.8,29.7
			h21.5L407,519.1z" fill="#E73C00"></path>
<path d="M506.8,573.4v-48.4l-19.5,48.4h-6.4l-19.5-48.4v48.4h-14.7v-69.1h20.6l16.8,41.7l16.8-41.7h20.7v69.1
			H506.8z" fill="#E73C00"></path>
<path d="M532.7,573.4v-69.1h48.9v12.9h-34.2v14.6h33.5v12.9h-33.5v15.6h34.2v12.9H532.7z" fill="#E73C00"></path>
</g>
<path d="M521.8,212.8v-61.4c0-73.2-59.5-132.7-132.7-132.7c-35.7,0-68.2,14.2-92.1,37.3
		c-23.9-23-56.4-37.3-92.1-37.3c-73.2,0-132.7,59.6-132.7,132.7v184.2c0,73.2,59.5,132.7,132.7,132.7h184.2
		c73.2,0,132.7-59.5,132.7-132.7v-89.2H256.4v81.2h184.2v8c0,28.4-23.1,51.5-51.5,51.5H204.9c-28.4,0-51.5-23.1-51.5-51.5V151.4
		c0-28.4,23.1-51.5,51.5-51.5c28.4,0,51.5,23.1,51.5,51.5v61.4h81.2v-61.4c0-28.4,23.1-51.5,51.5-51.5c28.4,0,51.5,23.1,51.5,51.5
		v61.4H521.8z" fill="#E73C00"></path>
</g>
<g>
</g>
<g>
</g>
<g>
</g>
<g>
</g>
<g>
</g>
<g>
</g>
</svg>